#!OML:ASF E:\I on waltz\AllaLogoMonkeySwing\Project 1\Capture day 1\Session 1\Subject1.ASF
:FULLY-SPECIFIED
:DEGREES
547
root -0.337371 17.9172 -3.45824 181.968 177.071 178.683
lowerback 5.33228 -1.55126 -3.34091
upperback -0.622757 -2.2235 1.84437
thorax -3.43462 -1.02557 3.96632
lowerneck -7.15478 -9.08437 -9.34612
upperneck 12.3684 -11.9468 5.73157
head 5.82054 -5.90038 2.35991
rclavicle -8.07563e-016 7.85199e-015
rhumerus -33.3402 -26.9618 -71.8623
rradius 23.0546
rwrist 9.5889
rhand -5.83335 -38.7305
rfingers 7.12502
rthumb 19.9926 -67.722
lclavicle -8.07563e-016 7.85199e-015
lhumerus -44.1351 30.8117 71.5194
lradius 34.499
lwrist -6.17264
lhand -11.2802 -10.4586
lfingers 7.12502
lthumb 14.7506 18.9966
rfemur -0.319489 0.537013 17.9214
rtibia 15.5355
rfoot -14.2818 -9.28979
rtoes 9.4265
lfemur 3.08361 -1.41746 -13.5541
ltibia 9.88165
lfoot -13.5672 3.23807
ltoes -33.8934
548
root -0.336141 17.9161 -3.45738 181.955 177.019 178.675
lowerback 5.35777 -1.54343 -3.32479
upperback -0.629761 -2.21273 1.84443
thorax -3.45782 -1.01983 3.95763
lowerneck -7.24957 -9.11991 -9.34239
upperneck 12.454 -11.9867 5.7
head 5.86441 -5.91949 2.33968
rclavicle 1.43249e-014 -2.41523e-014
rhumerus -33.3159 -26.9615 -71.8649
rradius 23.0449
rwrist 9.62329
rhand -6.21969 -39.2871
rfingers 7.12502
rthumb 19.6212 -68.317
lclavicle 1.43249e-014 -2.41523e-014
lhumerus -44.1399 30.9407 71.4586
lradius 34.4641
lwrist -6.43728
lhand -11.5734 -10.1505
lfingers 7.12502
lthumb 14.468 19.3251
rfemur -0.305383 0.622083 17.9561
rtibia 15.5556
rfoot -14.3347 -9.44361
rtoes 9.31814
lfemur 3.07573 -1.40711 -13.5367
ltibia 9.90278
lfoot -13.576 3.18337
ltoes -33.7921
549
root -0.334446 17.9161 -3.45633 181.944 177.003 178.648
lowerback 5.37629 -1.51987 -3.30873
upperback -0.63933 -2.1807 1.84709
thorax -3.48159 -1.00342 3.94986
lowerneck -7.27417 -9.14958 -9.30204
upperneck 12.4455 -12.0278 5.68777
head 5.86574 -5.93789 2.3248
rclavicle -1.94126e-014 7.35503e-015
rhumerus -33.3029 -26.9301 -71.8938
rradius 23.089
rwrist 9.62916
rhand -6.72431 -39.8877
rfingers 7.12502
rthumb 19.1359 -68.9663
lclavicle -1.94126e-014 7.35503e-015
lhumerus -44.1229 30.9663 71.4369
lradius 34.4296
lwrist -6.68104
lhand -11.5142 -9.72993
lfingers 7.12502
lthumb 14.5251 19.7416
rfemur -0.302411 0.616753 17.9853
rtibia 15.5878
rfoot -14.2868 -9.47549
rtoes 9.4153
lfemur 3.07458 -1.38713 -13.495
ltibia 9.90625
lfoot -13.5482 3.10991
ltoes -33.7599
550
root -0.331992 17.916 -3.45505 181.928 176.987 178.633
lowerback 5.38924 -1.49247 -3.30345
upperback -0.651693 -2.14429 1.84464
thorax -3.50533 -0.984633 3.94236
lowerneck -7.21993 -9.16718 -9.26473
upperneck 12.3817 -12.0601 5.70047
head 5.83739 -5.95233 2.32366
rclavicle -2.35311e-014 -1.18277e-014
rhumerus -33.3296 -26.8636 -71.9346
rradius 23.1387
rwrist 9.63669
rhand -7.25904 -40.246
rfingers 7.12502
rthumb 18.6217 -69.3747
lclavicle -2.35311e-014 -1.18277e-014
lhumerus -44.1154 31.0087 71.3864
lradius 34.3831
lwrist -6.91051
lhand -11.2643 -9.26034
lfingers 7.12502
lthumb 14.7659 20.1937
rfemur -0.273276 0.567247 17.9896
rtibia 15.5827
rfoot -14.2492 -9.43057
rtoes 9.46072
lfemur 3.08773 -1.38836 -13.4782
ltibia 9.91594
lfoot -13.5494 3.0531
ltoes -33.5251
551
root -0.329424 17.9151 -3.45395 181.91 176.948 178.597
lowerback 5.38753 -1.48882 -3.26777
upperback -0.662606 -2.13695 1.8472
thorax -3.5175 -0.981187 3.92452
lowerneck -7.11951 -9.18148 -9.32042
upperneck 12.2976 -12.0936 5.81014
head 5.80688 -5.96635 2.36869
rclavicle -1.54307e-014 1.16289e-014
rhumerus -33.3237 -26.7602 -72.0002
rradius 23.0877
rwrist 9.60536
rhand -7.8837 -40.343
rfingers 7.12502
rthumb 18.0207 -69.5282
lclavicle -1.54307e-014 1.16289e-014
lhumerus -44.1385 31.0659 71.2974
lradius 34.3493
lwrist -7.02085
lhand -11.4801 -9.10354
lfingers 7.12502
lthumb 14.5579 20.3656
rfemur -0.250935 0.527842 18.0184
rtibia 15.5849
rfoot -14.2877 -9.40577
rtoes 9.43265
lfemur 3.09248 -1.40838 -13.4472
ltibia 9.94431
lfoot -13.6381 3.0331
ltoes -33.3227
552
root -0.327552 17.915 -3.45257 181.889 176.922 178.553
lowerback 5.37468 -1.5065 -3.22575
upperback -0.664078 -2.15724 1.85199
thorax -3.51123 -0.992208 3.90689
lowerneck -7.06883 -9.16244 -9.37219
upperneck 12.267 -12.0762 5.89061
head 5.79562 -5.95623 2.40589
rclavicle -6.51641e-015 -2.10712e-014
rhumerus -33.2171 -26.3685 -72.2149
rradius 22.994
rwrist 9.3133
rhand -8.48238 -40.532
rfingers 7.12502
rthumb 17.4446 -69.7693
lclavicle -6.51641e-015 -2.10712e-014
lhumerus -44.1687 30.963 71.2685
lradius 34.3781
lwrist -6.89081
lhand -12.0676 -9.22566
lfingers 7.12502
lthumb 13.9919 20.2835
rfemur -0.245967 0.536261 18.0667
rtibia 15.6193
rfoot -14.3081 -9.42806
rtoes 9.58177
lfemur 3.11204 -1.46476 -13.4054
ltibia 9.93431
lfoot -13.7298 3.02653
ltoes -32.998
553
root -0.326328 17.9157 -3.45062 181.861 176.896 178.507
lowerback 5.35648 -1.5091 -3.17228
upperback -0.649509 -2.15691 1.84306
thorax -3.48809 -0.993944 3.86633
lowerneck -7.0881 -9.14695 -9.34997
upperneck 12.2892 -12.0584 5.89891
head 5.80353 -5.94569 2.40562
rclavicle 2.7277e-014 6.85807e-015
rhumerus -33.1225 -26.0167 -72.4161
rradius 22.9409
rwrist 9.02748
rhand -8.73616 -40.8108
rfingers 7.12502
rthumb 17.2004 -70.0696
lclavicle 2.7277e-014 6.85807e-015
lhumerus -44.1748 30.7336 71.3114
lradius 34.4513
lwrist -6.68692
lhand -12.5095 -9.3032
lfingers 7.12502
lthumb 13.566 20.2348
rfemur -0.20256 0.583141 18.1307
rtibia 15.6008
rfoot -14.2912 -9.50744
rtoes 9.61741
lfemur 3.15286 -1.51533 -13.3532
ltibia 9.90535
lfoot -13.7387 3.00948
ltoes -32.8669
554
root -0.325293 17.9153 -3.44841 181.807 176.866 178.39
lowerback 5.36612 -1.48702 -3.03566
upperback -0.628879 -2.1186 1.84105
thorax -3.48031 -0.978015 3.78406
lowerneck -7.01025 -9.18229 -9.43995
upperneck 12.1156 -12.1298 6.14781
head 5.76263 -5.97056 2.49551
rclavicle 3.40698e-014 -1.39149e-015
rhumerus -33.1144 -26.0915 -72.4076
rradius 22.8951
rwrist 9.03283
rhand -8.83054 -40.9729
rfingers 7.12502
rthumb 17.1096 -70.2395
lclavicle 3.40698e-014 -1.39149e-015
lhumerus -44.1795 30.5816 71.3103
lradius 34.5021
lwrist -6.60549
lhand -12.9488 -9.29131
lfingers 7.12502
lthumb 13.1426 20.2745
rfemur -0.110564 0.629063 18.2871
rtibia 15.5474
rfoot -14.2693 -9.58467
rtoes 9.52438
lfemur 3.21748 -1.51222 -13.205
ltibia 9.8955
lfoot -13.6843 2.9637
ltoes -32.963
555
root -0.324087 17.9145 -3.44688 181.759 176.832 178.31
lowerback 5.39752 -1.47101 -2.94927
upperback -0.632425 -2.09194 1.84999
thorax -3.50661 -0.965675 3.7438
lowerneck -7.03845 -9.20239 -9.26493
upperneck 12.2297 -12.1414 5.86809
head 5.77562 -5.98537 2.37865
rclavicle 6.4605e-016 2.0773e-014
rhumerus -33.1301 -26.2047 -72.3179
rradius 22.7951
rwrist 9.11566
rhand -8.95067 -41.2472
rfingers 7.12502
rthumb 16.9939 -70.5238
lclavicle 6.4605e-016 2.0773e-014
lhumerus -44.2094 30.5474 71.2501
lradius 34.4975
lwrist -6.61941
lhand -13.4371 -9.26668
lfingers 7.12502
lthumb 12.6718 20.3289
rfemur -0.032648 0.683467 18.4023
rtibia 15.5156
rfoot -14.2495 -9.66538
rtoes 9.60038
lfemur 3.26048 -1.51705 -13.1083
ltibia 9.9026
lfoot -13.6204 2.9239
ltoes -32.9737
556
root -0.322057 17.9144 -3.44581 181.716 176.785 178.329
lowerback 5.43167 -1.47523 -2.96895
upperback -0.639867 -2.09965 1.85161
thorax -3.53218 -0.968424 3.75862
lowerneck -6.87369 -9.21379 -9.3463
upperneck 12.0589 -12.1628 5.9369
head 5.70536 -5.99893 2.42069
rclavicle 7.53518e-015 -1.26228e-014
rhumerus -33.1325 -26.1875 -72.2517
rradius 22.6814
rwrist 9.16336
rhand -9.02209 -41.7292
rfingers 7.12502
rthumb 16.9252 -71.0117
lclavicle 7.53518e-015 -1.26228e-014
lhumerus -44.249 30.5372 71.1987
lradius 34.4897
lwrist -6.54837
lhand -13.805 -9.33625
lfingers 7.12502
lthumb 12.3171 20.281
rfemur 0.0462271 0.715058 18.3902
rtibia 15.489
rfoot -14.2606 -9.73287
rtoes 9.65244
lfemur 3.29887 -1.53985 -13.1427
ltibia 9.91006
lfoot -13.5891 2.89094
ltoes -33.0173
557
root -0.318459 17.9146 -3.444 181.675 176.737 178.336
lowerback 5.44266 -1.4804 -2.9699
upperback -0.6365 -2.10644 1.86368
thorax -3.53382 -0.971691 3.77257
lowerneck -6.70202 -9.20735 -9.46249
upperneck 11.8742 -12.1601 6.03449
head 5.63184 -6.00055 2.47972
rclavicle 1.4825e-014 2.0276e-014
rhumerus -33.146 -26.1748 -72.1773
rradius 22.6415
rwrist 9.21151
rhand -9.09429 -42.1477
rfingers 7.12502
rthumb 16.8557 -71.4362
lclavicle 1.4825e-014 2.0276e-014
lhumerus -44.3293 30.6214 71.1051
lradius 34.5132
lwrist -6.52371
lhand -13.9209 -9.43503
lfingers 7.12502
lthumb 12.2053 20.1889
rfemur 0.114888 0.652832 18.36
rtibia 15.4753
rfoot -14.2772 -9.69695
rtoes 9.57307
lfemur 3.3508 -1.5606 -13.1762
ltibia 9.89171
lfoot -13.6214 2.8829
ltoes -33.1759
558
root -0.315395 17.9141 -3.44311 181.677 176.697 178.34
lowerback 5.40355 -1.4741 -2.97259
upperback -0.622909 -2.09676 1.87758
thorax -3.49793 -0.967712 3.78602
lowerneck -6.61819 -9.20036 -9.54169
upperneck 11.7758 -12.1496 6.07693
head 5.59381 -5.99815 2.51128
rclavicle 3.11222e-015 1.2921e-015
rhumerus -33.1435 -26.2156 -72.1104
rradius 22.6619
rwrist 9.29265
rhand -9.20771 -42.401
rfingers 7.12502
rthumb 16.7465 -71.6987
lclavicle 3.11222e-015 1.2921e-015
lhumerus -44.3703 30.7795 70.9985
lradius 34.5346
lwrist -6.67795
lhand -13.9587 -9.41811
lfingers 7.12502
lthumb 12.1689 20.208
rfemur 0.115279 0.576954 18.3282
rtibia 15.4865
rfoot -14.2696 -9.64144
rtoes 9.63284
lfemur 3.34207 -1.58624 -13.2032
ltibia 9.89976
lfoot -13.688 2.89937
ltoes -33.235
559
root -0.314184 17.9131 -3.4428 181.698 176.644 178.371
lowerback 5.34755 -1.46111 -3.01175
upperback -0.605844 -2.08069 1.87586
thorax -3.44881 -0.960347 3.80263
lowerneck -6.60629 -9.21385 -9.63386
upperneck 11.7658 -12.1673 6.14533
head 5.60023 -6.00668 2.54503
rclavicle 1.95057e-015 8.05078e-015
rhumerus -33.1236 -26.2621 -72.0644
rradius 22.6609
rwrist 9.33748
rhand -9.37423 -42.623
rfingers 7.12502
rthumb 16.5862 -71.9342
lclavicle 1.95057e-015 8.05078e-015
lhumerus -44.3352 30.8832 70.942
lradius 34.5256
lwrist -6.89625
lhand -14.1251 -9.34877
lfingers 7.12502
lthumb 12.0085 20.2867
rfemur 0.0955177 0.553298 18.283
rtibia 15.4962
rfoot -14.333 -9.68224
rtoes 9.50395
lfemur 3.29956 -1.61332 -13.2478
ltibia 9.92572
lfoot -13.6773 2.885
ltoes -33.2073
560
root -0.31271 17.9124 -3.4405 181.722 176.595 178.365
lowerback 5.27133 -1.45705 -2.99862
upperback -0.608574 -2.07298 1.86419
thorax -3.41026 -0.957705 3.77979
lowerneck -6.59254 -9.22175 -9.6562
upperneck 11.8105 -12.1837 6.17839
head 5.61669 -6.01389 2.55676
rclavicle -2.45685e-014 3.32964e-014
rhumerus -33.1563 -26.3391 -72.0052
rradius 22.5995
rwrist 9.40969
rhand -9.58695 -42.8539
rfingers 7.12502
rthumb 16.3814 -72.1822
lclavicle -2.45685e-014 3.32964e-014
lhumerus -44.3559 30.9778 70.8183
lradius 34.4919
lwrist -7.08637
lhand -14.2624 -9.34122
lfingers 7.12502
lthumb 11.876 20.302
rfemur 0.0997747 0.570702 18.2923
rtibia 15.4629
rfoot -14.3876 -9.75663
rtoes 9.29327
lfemur 3.26699 -1.63116 -13.2457
ltibia 9.92848
lfoot -13.6404 2.85735
ltoes -33.2174
